{"glyphs":{"0":{"ha":856,"x_min":0,"x_max":0,"o":"m 428 1065 b 803 522 693 1065 803 738 b 428 -18 803 264 667 -18 b 53 522 189 -18 53 264 b 428 1065 53 738 163 1065 m 428 957 b 169 517 231 957 167 665 b 428 90 172 369 235 90 b 686 517 621 90 683 369 b 428 957 689 665 625 957 "},"1":{"ha":856,"x_min":0,"x_max":0,"o":"m 219 939 l 281 1047 l 510 1047 l 510 0 l 393 0 l 393 939 "},"2":{"ha":856,"x_min":0,"x_max":0,"o":"m 735 108 l 735 0 l 57 0 l 547 579 b 618 754 589 629 618 686 b 410 957 618 871 524 957 b 199 742 283 957 201 864 l 82 742 b 406 1065 86 925 221 1065 b 735 756 581 1065 735 938 b 656 535 735 671 710 597 l 293 108 "},"3":{"ha":856,"x_min":0,"x_max":0,"o":"m 376 604 b 583 774 488 608 583 642 b 400 957 583 885 510 957 b 228 789 296 957 238 888 l 113 789 b 403 1065 129 956 231 1065 b 700 779 571 1065 700 951 b 565 550 700 686 650 593 b 715 293 667 504 715 400 b 390 -18 715 110 569 -18 b 79 272 221 -18 82 97 l 193 272 b 394 90 199 165 289 90 b 599 300 511 90 599 185 b 376 496 599 433 504 500 "},"4":{"ha":856,"x_min":0,"x_max":0,"o":"m 790 278 l 790 169 l 661 169 l 661 0 l 544 0 l 544 169 l 8 169 l 658 1106 l 661 1106 l 661 278 m 544 751 l 542 751 l 213 278 l 544 278 "},"5":{"ha":856,"x_min":0,"x_max":0,"o":"m 392 939 l 324 715 l 386 721 b 735 356 593 721 735 558 b 350 -18 735 139 564 -18 b 29 169 213 -18 99 51 l 122 236 b 354 90 169 151 254 90 b 618 358 508 90 618 206 b 357 613 618 507 503 613 b 158 546 285 613 218 585 l 310 1047 l 726 1047 l 726 939 "},"6":{"ha":856,"x_min":0,"x_max":0,"o":"m 592 1000 l 350 675 l 353 672 b 397 683 367 678 382 681 b 444 688 413 686 429 688 b 783 342 635 688 783 531 b 422 -18 783 142 619 -18 b 61 340 224 -18 61 143 b 157 592 61 436 104 518 l 504 1065 m 422 90 b 667 338 558 90 667 201 b 422 579 667 474 557 579 b 178 338 286 579 178 474 b 422 90 178 201 286 90 "},"7":{"ha":856,"x_min":0,"x_max":0,"o":"m 71 939 l 71 1047 l 843 1047 l 140 -18 l 49 36 l 643 939 "},"8":{"ha":856,"x_min":0,"x_max":0,"o":"m 428 493 b 225 292 314 493 225 403 b 428 90 225 181 314 90 b 631 292 542 90 631 181 b 428 493 631 403 542 493 m 428 1065 b 721 774 592 1065 721 942 b 593 544 721 682 674 590 b 747 293 692 500 747 400 b 428 -18 747 113 608 -18 b 108 293 247 -18 108 113 b 263 544 108 400 164 500 b 135 774 182 590 135 682 b 428 1065 135 942 264 1065 m 428 957 b 246 776 328 957 246 876 b 428 593 246 675 328 593 b 610 776 528 593 610 675 b 428 957 610 876 528 957 "},"9":{"ha":856,"x_min":0,"x_max":0,"o":"m 253 42 l 494 374 l 492 376 b 401 363 464 368 433 363 b 63 708 210 363 63 518 b 424 1065 63 907 226 1065 b 785 708 621 1065 785 907 b 688 457 785 614 742 532 l 340 -18 m 424 957 b 179 713 288 957 179 847 b 424 471 179 576 288 471 b 668 713 558 471 668 576 b 424 957 668 847 558 957 "}," ":{"ha":428,"x_min":0,"x_max":0,"o":""},"!":{"ha":469,"x_min":0,"x_max":0,"o":"m 235 138 b 313 61 278 138 313 103 b 235 -18 313 18 278 -18 b 157 61 192 -18 157 18 b 235 138 157 103 192 138 m 178 1047 l 292 1047 l 292 213 l 178 213 "},"\"":{"ha":635,"x_min":0,"x_max":0,"o":"m 272 1047 l 247 592 l 167 592 l 142 1047 m 493 1047 l 468 592 l 388 592 l 363 1047 "},"#":{"ha":856,"x_min":0,"x_max":0,"o":"m 435 1047 l 385 764 l 557 764 l 606 1047 l 715 1047 l 667 764 l 794 764 l 794 656 l 649 656 l 608 418 l 749 418 l 749 310 l 589 310 l 533 0 l 428 0 l 482 310 l 311 310 l 253 0 l 149 0 l 203 310 l 61 310 l 61 418 l 221 418 l 261 656 l 113 656 l 113 764 l 278 764 l 328 1047 m 329 418 l 500 418 l 540 656 l 369 656 "},"$":{"ha":856,"x_min":0,"x_max":0,"o":"m 494 106 b 636 304 582 135 636 213 b 494 478 636 393 567 443 m 403 947 b 274 790 329 933 274 867 b 403 643 274 714 342 671 m 403 519 b 157 794 276 572 157 640 b 403 1057 157 939 265 1038 l 403 1200 l 494 1200 l 494 1057 b 714 899 589 1044 672 982 l 622 839 b 494 946 594 888 553 935 l 494 603 b 753 307 632 544 753 474 b 494 -7 753 153 644 24 l 494 -160 l 403 -160 l 403 -15 b 103 254 253 -8 129 108 l 215 286 b 403 96 228 190 304 103 "},"%":{"ha":1107,"x_min":0,"x_max":0,"o":"m 278 976 b 133 836 200 976 133 914 b 278 697 133 760 200 697 b 422 836 356 697 422 760 b 278 976 422 914 356 976 m 885 1032 l 279 -18 l 219 18 l 829 1065 m 831 350 b 686 210 753 350 686 288 b 831 71 686 133 753 71 b 975 210 908 71 975 133 b 831 350 975 288 908 350 m 278 1065 b 511 836 406 1065 511 965 b 278 608 511 708 404 608 b 44 836 151 608 44 707 b 278 1065 44 965 150 1065 m 831 439 b 1064 210 958 439 1064 339 b 831 -18 1064 82 957 -18 b 597 210 704 -18 597 81 b 831 439 597 339 703 439 "},"&":{"ha":965,"x_min":0,"x_max":0,"o":"m 429 690 b 560 860 489 736 560 776 b 446 967 560 924 507 967 b 331 851 382 967 331 917 b 394 718 331 799 365 760 l 419 683 m 694 147 b 360 -18 601 64 490 -18 b 54 268 200 -18 54 101 b 311 613 54 443 181 526 l 324 621 b 219 843 276 686 219 757 b 449 1065 219 975 318 1065 b 671 860 567 1065 671 982 b 486 599 671 735 576 667 l 707 317 l 825 454 l 910 385 l 776 229 l 954 0 l 807 0 m 342 501 b 168 276 263 447 168 383 b 353 88 168 178 254 88 b 625 235 458 88 550 169 l 392 535 "},"’":{"ha":401,"x_min":0,"x_max":0,"o":"m 317 1028 l 158 674 l 83 703 l 214 1065 "},"(":{"ha":399,"x_min":0,"x_max":0,"o":"m 354 1047 b 243 381 275 838 243 608 b 354 -286 243 153 275 -76 l 256 -333 b 129 381 158 -126 129 156 b 256 1094 129 606 158 888 "},")":{"ha":399,"x_min":0,"x_max":0,"o":"m 143 1094 b 269 381 240 888 269 606 b 143 -333 269 156 240 -126 l 44 -286 b 156 381 124 -76 156 153 b 44 1047 156 608 124 838 "},"*":{"ha":822,"x_min":0,"x_max":0,"o":"m 360 1047 l 464 1047 l 456 853 l 639 921 l 672 821 l 483 768 l 604 615 l 519 553 l 411 717 l 303 553 l 218 615 l 340 768 l 151 821 l 185 921 l 368 853 "},"+":{"ha":856,"x_min":0,"x_max":0,"o":"m 482 692 l 482 410 l 764 410 l 764 301 l 482 301 l 482 19 l 374 19 l 374 301 l 92 301 l 92 410 l 374 410 l 374 692 "},",":{"ha":428,"x_min":0,"x_max":0,"o":"m 313 117 l 156 -239 l 81 -208 l 210 153 "},"-":{"ha":289,"x_min":0,"x_max":0,"o":"m 288 386 l 288 283 l 3 283 l 3 386 "},".":{"ha":428,"x_min":0,"x_max":0,"o":"m 214 138 b 292 61 257 138 292 103 b 214 -18 292 18 257 -18 b 136 61 171 -18 136 18 b 214 138 136 103 171 138 "},"/":{"ha":792,"x_min":0,"x_max":0,"o":"m 767 1104 l 115 -218 l 25 -176 l 675 1146 "},":":{"ha":428,"x_min":0,"x_max":0,"o":"m 214 138 b 292 61 257 138 292 103 b 214 -18 292 18 257 -18 b 136 61 171 -18 136 18 b 214 138 136 103 171 138 m 214 671 b 292 594 257 671 292 636 b 214 515 292 551 257 515 b 136 594 171 515 136 551 b 214 671 136 636 171 671 "},";":{"ha":428,"x_min":0,"x_max":0,"o":"m 315 117 l 158 -239 l 83 -208 l 213 153 m 249 671 b 326 594 292 671 326 636 b 249 515 326 551 292 515 b 171 594 206 515 171 551 b 249 671 171 636 206 671 "},"<":{"ha":856,"x_min":0,"x_max":0,"o":"m 764 574 l 253 356 l 764 138 l 764 19 l 92 307 l 92 404 l 764 692 "},"=":{"ha":856,"x_min":0,"x_max":0,"o":"m 764 518 l 764 410 l 92 410 l 92 518 m 764 301 l 764 193 l 92 193 l 92 301 "},">":{"ha":856,"x_min":0,"x_max":0,"o":"m 92 692 l 764 404 l 764 307 l 92 19 l 92 138 l 603 356 l 92 574 "},"?":{"ha":678,"x_min":0,"x_max":0,"o":"m 564 456 b 338 215 568 322 472 215 b 111 442 208 215 111 314 b 301 654 111 567 196 619 b 478 814 390 682 478 700 b 335 958 478 899 418 958 b 199 821 256 958 199 897 b 207 754 199 799 201 776 l 92 754 l 86 828 b 342 1065 86 972 204 1065 b 592 815 483 1065 592 957 b 517 629 592 747 567 675 b 332 549 468 586 393 567 b 225 433 272 532 225 503 b 339 322 225 371 276 322 b 451 456 417 322 451 386 m 336 138 b 414 61 379 138 414 103 b 336 -18 414 18 379 -18 b 258 61 293 -18 258 18 b 336 138 258 103 293 138 "},"@":{"ha":1111,"x_min":0,"x_max":0,"o":"m 363 481 b 513 314 363 386 415 314 b 699 517 636 314 686 418 b 557 704 713 628 653 704 b 363 481 444 704 363 588 m 753 786 l 851 786 l 782 432 b 801 314 772 386 754 314 b 963 579 865 314 956 447 b 576 965 976 824 803 965 b 150 524 329 965 150 776 b 600 82 150 257 349 82 b 865 146 715 82 807 104 l 963 75 b 589 -18 865 25 757 -18 b 50 524 290 -18 50 211 b 581 1065 50 832 285 1065 b 907 946 703 1065 815 1028 b 1063 628 1001 864 1063 757 b 976 336 1063 514 1032 408 b 763 217 910 249 829 214 b 688 301 724 218 696 249 b 499 217 640 254 582 217 b 265 471 376 217 265 329 b 549 799 265 638 376 799 b 733 701 619 799 678 774 "},"A":{"ha":971,"x_min":0,"x_max":0,"o":"m 263 297 l 136 0 l 8 0 l 492 1097 l 963 0 l 833 0 l 710 297 m 489 825 l 310 406 l 664 406 "},"B":{"ha":789,"x_min":0,"x_max":0,"o":"m 222 108 l 339 108 b 607 300 469 108 607 140 b 324 486 607 463 451 486 l 222 486 m 106 1047 l 278 1047 b 628 764 468 1047 628 978 b 525 560 628 679 596 607 b 724 292 650 529 724 417 b 349 0 724 83 556 0 l 106 0 m 222 586 l 267 586 b 511 764 399 586 511 601 b 268 939 511 922 411 939 l 222 939 "},"C":{"ha":996,"x_min":0,"x_max":0,"o":"m 904 818 b 585 957 821 904 706 957 b 163 524 351 957 163 754 b 588 90 163 293 353 90 b 904 229 706 90 821 146 l 904 85 b 592 -18 814 19 703 -18 b 46 519 296 -18 46 222 b 592 1065 46 819 292 1065 b 904 963 708 1065 811 1032 "},"D":{"ha":942,"x_min":0,"x_max":0,"o":"m 106 1047 l 303 1047 b 711 921 460 1047 588 1026 b 885 522 831 818 885 678 b 714 132 885 369 829 235 b 300 0 589 21 464 0 l 106 0 m 307 108 b 638 217 435 108 542 126 b 768 524 724 297 768 407 b 632 838 768 643 722 758 b 307 939 536 922 431 939 l 222 939 l 222 108 "},"E":{"ha":742,"x_min":0,"x_max":0,"o":"m 106 1047 l 649 1047 l 649 939 l 222 939 l 222 628 l 636 628 l 636 519 l 222 519 l 222 108 l 649 108 l 649 0 l 106 0 "},"F":{"ha":664,"x_min":0,"x_max":0,"o":"m 222 939 l 222 628 l 571 628 l 571 519 l 222 519 l 222 0 l 106 0 l 106 1047 l 582 1047 l 582 939 "},"G":{"ha":1139,"x_min":0,"x_max":0,"o":"m 1079 526 b 971 157 1082 385 1067 268 b 583 -18 875 46 729 -18 b 44 521 289 -18 44 226 b 590 1065 44 821 289 1065 b 1033 839 774 1065 922 983 l 949 760 b 589 957 861 883 743 957 b 161 519 350 957 161 756 b 283 224 161 408 206 303 b 581 90 360 147 471 90 b 954 418 763 90 954 224 l 643 418 l 643 526 "},"H":{"ha":992,"x_min":0,"x_max":0,"o":"m 764 622 l 764 1047 l 881 1047 l 881 0 l 764 0 l 764 514 l 228 514 l 228 0 l 111 0 l 111 1047 l 228 1047 l 228 622 "},"I":{"ha":332,"x_min":0,"x_max":0,"o":"m 225 0 l 108 0 l 108 1047 l 225 1047 "},"J":{"ha":436,"x_min":0,"x_max":0,"o":"m 328 218 b 275 -22 328 135 328 47 b 94 -108 232 -79 165 -108 b -92 -31 25 -108 -39 -75 l -26 60 b 97 0 11 25 43 0 b 211 218 211 0 211 136 l 211 1047 l 328 1047 "},"K":{"ha":849,"x_min":0,"x_max":0,"o":"m 668 1047 l 825 1047 l 333 560 l 842 0 l 681 0 l 251 481 l 222 451 l 222 0 l 106 0 l 106 1047 l 222 1047 l 222 599 "},"L":{"ha":521,"x_min":0,"x_max":0,"o":"m 222 108 l 511 108 l 511 0 l 106 0 l 106 1047 l 222 1047 "},"M":{"ha":1244,"x_min":0,"x_max":0,"o":"m 242 1107 l 622 228 l 1004 1107 l 1217 0 l 1097 0 l 963 708 l 960 708 l 622 -43 l 286 708 l 283 708 l 149 0 l 29 0 "},"N":{"ha":1158,"x_min":0,"x_max":0,"o":"m 113 1092 l 929 236 l 929 1047 l 1046 1047 l 1046 -47 l 229 807 l 229 0 l 113 0 "},"O":{"ha":1197,"x_min":0,"x_max":0,"o":"m 599 1065 b 1144 522 897 1065 1144 822 b 599 -18 1144 221 897 -18 b 53 522 300 -18 53 221 b 599 1065 53 822 300 1065 m 599 957 b 169 524 358 957 169 761 b 599 90 169 288 361 90 b 1028 524 836 90 1028 288 b 599 957 1028 761 839 957 "},"P":{"ha":699,"x_min":0,"x_max":0,"o":"m 222 0 l 106 0 l 106 1047 l 278 1047 b 538 992 368 1047 461 1044 b 656 753 615 938 656 846 b 556 528 656 668 621 582 b 307 458 485 469 394 458 l 222 458 m 222 567 l 300 567 b 539 756 429 567 539 606 b 265 939 539 926 401 939 l 222 939 "},"Q":{"ha":1197,"x_min":0,"x_max":0,"o":"m 913 233 b 1028 524 990 315 1028 411 b 599 957 1028 763 839 957 b 169 524 358 957 169 761 b 599 90 169 288 361 90 b 832 168 676 90 768 119 l 579 422 l 732 422 m 914 85 b 599 -18 828 19 704 -18 b 53 522 300 -18 53 221 b 599 1065 53 822 300 1065 b 1144 519 901 1065 1144 819 b 993 150 1144 374 1092 256 l 1150 -10 l 1001 -10 "},"R":{"ha":753,"x_min":0,"x_max":0,"o":"m 222 563 l 258 563 b 524 750 390 563 524 588 b 257 939 524 922 397 939 l 222 939 m 222 0 l 106 0 l 106 1047 l 257 1047 b 640 758 456 1047 640 994 b 378 469 640 597 539 483 l 711 0 l 568 0 l 251 460 l 222 460 "},"S":{"ha":776,"x_min":0,"x_max":0,"o":"m 581 843 b 400 957 539 915 489 957 b 226 794 307 957 226 890 b 390 631 226 704 319 663 l 460 600 b 711 306 596 540 711 472 b 382 -18 711 122 564 -18 b 56 253 214 -18 89 90 l 169 285 b 379 90 185 178 267 90 b 594 294 492 90 594 176 b 401 503 594 417 499 458 l 338 531 b 110 799 215 586 110 649 b 403 1065 110 961 247 1065 b 674 903 519 1065 618 1006 "},"T":{"ha":653,"x_min":0,"x_max":0,"o":"m 383 0 l 267 0 l 267 939 l 14 939 l 14 1047 l 639 1047 l 639 939 l 383 939 "},"U":{"ha":951,"x_min":0,"x_max":0,"o":"m 219 424 b 265 190 219 346 217 257 b 476 90 311 126 400 90 b 682 183 551 90 633 125 b 733 424 738 250 733 342 l 733 1047 l 850 1047 l 850 392 b 758 101 850 278 842 188 b 476 -18 686 24 582 -18 b 206 89 378 -18 276 19 b 103 392 114 176 103 272 l 103 1047 l 219 1047 "},"V":{"ha":867,"x_min":0,"x_max":0,"o":"m 433 249 l 732 1047 l 858 1047 l 433 -62 l 8 1047 l 135 1047 "},"W":{"ha":1515,"x_min":0,"x_max":0,"o":"m 419 263 l 758 1101 l 1097 263 l 1372 1047 l 1499 1047 l 1097 -54 l 758 789 l 419 -54 l 18 1047 l 144 1047 "},"X":{"ha":783,"x_min":0,"x_max":0,"o":"m 44 1047 l 178 1047 l 392 653 l 606 1047 l 739 1047 l 456 542 l 765 0 l 632 0 l 392 431 l 151 0 l 18 0 l 328 542 "},"Y":{"ha":824,"x_min":0,"x_max":0,"o":"m 11 1047 l 146 1047 l 413 581 l 679 1047 l 814 1047 l 471 450 l 471 0 l 354 0 l 354 450 "},"Z":{"ha":814,"x_min":0,"x_max":0,"o":"m 769 108 l 769 0 l 19 0 l 590 939 l 92 939 l 92 1047 l 785 1047 l 213 108 "},"[":{"ha":438,"x_min":0,"x_max":0,"o":"m 258 -231 l 408 -231 l 408 -333 l 144 -333 l 144 1094 l 408 1094 l 408 992 l 258 992 "},"\\":{"ha":792,"x_min":0,"x_max":0,"o":"m 117 1146 l 767 0 l 676 -42 l 25 1104 "},"]":{"ha":438,"x_min":0,"x_max":0,"o":"m 179 992 l 29 992 l 29 1094 l 293 1094 l 293 -333 l 29 -333 l 29 -231 l 179 -231 "},"^":{"ha":856,"x_min":0,"x_max":0,"o":"m 378 1047 l 478 1047 l 764 447 l 640 447 l 428 903 l 213 447 l 92 447 "},"_":{"ha":694,"x_min":0,"x_max":0,"o":"m 694 -174 l 0 -174 l 0 -104 l 694 -104 "},"‘":{"ha":401,"x_min":0,"x_max":0,"o":"m 85 711 l 243 1065 l 318 1036 l 188 674 "},"a":{"ha":801,"x_min":0,"x_max":0,"o":"m 376 568 b 164 333 247 568 164 456 b 378 85 164 206 239 85 b 596 332 521 85 596 200 b 376 568 596 463 514 568 m 701 0 l 590 0 l 590 90 l 588 90 b 363 -18 531 18 454 -18 b 50 325 171 -18 50 144 b 364 671 50 511 168 671 b 588 560 453 671 533 629 l 590 560 l 590 653 l 701 653 "},"b":{"ha":801,"x_min":0,"x_max":0,"o":"m 418 568 b 206 333 289 568 206 456 b 419 85 206 206 281 85 b 638 332 563 85 638 200 b 418 568 638 463 556 568 m 100 1146 l 211 1146 l 211 560 l 214 560 b 438 671 267 629 349 671 b 751 326 632 671 751 511 b 439 -18 751 144 631 -18 b 214 90 349 -18 267 19 l 211 90 l 211 0 l 100 0 "},"c":{"ha":661,"x_min":0,"x_max":0,"o":"m 590 458 l 588 458 b 385 568 536 524 472 568 b 154 326 250 568 154 457 b 379 85 154 197 243 85 b 592 197 472 85 538 126 l 594 197 l 594 49 b 388 -18 531 6 465 -18 b 40 326 190 -18 40 129 b 389 671 40 521 197 671 b 590 606 460 671 532 647 "},"d":{"ha":801,"x_min":0,"x_max":0,"o":"m 376 568 b 164 333 247 568 164 456 b 378 85 164 206 239 85 b 596 332 521 85 596 200 b 376 568 596 463 514 568 m 590 90 l 588 90 b 363 -18 533 19 451 -18 b 50 325 171 -18 50 144 b 364 671 50 511 168 671 b 588 560 451 671 535 629 l 590 560 l 590 1146 l 701 1146 l 701 0 l 590 0 "},"e":{"ha":721,"x_min":0,"x_max":0,"o":"m 161 303 b 375 85 163 182 249 85 b 574 219 469 85 531 142 l 668 165 b 367 -18 606 49 500 -18 b 47 318 172 -18 47 131 b 364 671 47 511 160 671 b 674 303 574 671 685 497 m 557 397 b 365 568 542 492 463 568 b 167 397 269 568 181 492 "},"f":{"ha":381,"x_min":0,"x_max":0,"o":"m 226 0 l 115 0 l 115 550 l 54 550 l 54 653 l 115 653 l 115 913 b 144 1082 115 967 115 1035 b 313 1164 181 1140 246 1164 b 392 1150 339 1164 365 1158 l 392 1038 b 317 1053 367 1046 344 1053 b 226 874 226 1053 226 989 l 226 653 l 392 653 l 392 550 l 226 550 "},"g":{"ha":806,"x_min":0,"x_max":0,"o":"m 369 568 b 157 333 240 568 157 456 b 371 85 157 206 232 85 b 589 332 514 85 589 200 b 369 568 589 463 507 568 m 694 32 b 628 -249 694 -72 694 -162 b 375 -364 567 -326 472 -364 b 54 -64 193 -364 58 -249 l 165 -64 b 374 -261 167 -185 254 -261 b 583 13 546 -261 583 -135 l 583 90 l 581 90 b 354 -18 528 22 442 -18 b 43 324 164 -18 43 142 b 358 671 43 507 165 671 b 581 560 449 671 528 631 l 583 560 l 583 653 l 694 653 "},"h":{"ha":733,"x_min":0,"x_max":0,"o":"m 217 1146 l 217 576 l 219 574 b 406 671 265 636 325 671 b 628 388 586 671 628 540 l 628 0 l 517 0 l 517 368 b 379 568 517 474 508 568 b 217 310 226 568 217 426 l 217 0 l 106 0 l 106 1146 "},"i":{"ha":364,"x_min":0,"x_max":0,"o":"m 238 0 l 126 0 l 126 653 l 238 653 m 182 978 b 261 899 225 978 261 942 b 182 819 261 854 225 819 b 103 899 139 819 103 854 b 182 978 103 942 139 978 "},"j":{"ha":364,"x_min":0,"x_max":0,"o":"m 238 -367 l 126 -367 l 126 653 l 238 653 m 182 978 b 261 899 225 978 261 942 b 182 819 261 854 225 819 b 103 899 139 819 103 854 b 182 978 103 942 139 978 "},"k":{"ha":653,"x_min":0,"x_max":0,"o":"m 211 411 l 449 653 l 597 653 l 318 375 l 650 0 l 503 0 l 240 297 l 211 268 l 211 0 l 100 0 l 100 1146 l 211 1146 "},"l":{"ha":315,"x_min":0,"x_max":0,"o":"m 214 0 l 103 0 l 103 1146 l 214 1146 "},"m":{"ha":1067,"x_min":0,"x_max":0,"o":"m 217 582 l 219 582 b 376 671 254 636 310 671 b 557 563 453 671 522 631 b 753 671 596 635 674 671 b 961 397 919 671 961 535 l 961 0 l 850 0 l 850 379 b 731 568 850 464 844 568 b 589 346 603 568 589 444 l 589 0 l 478 0 l 478 371 b 361 568 478 451 468 568 b 217 338 231 568 217 436 l 217 0 l 106 0 l 106 653 l 217 653 "},"n":{"ha":733,"x_min":0,"x_max":0,"o":"m 217 574 l 219 574 b 406 671 265 636 325 671 b 628 388 586 671 628 540 l 628 0 l 517 0 l 517 368 b 379 568 517 474 508 568 b 217 310 226 568 217 426 l 217 0 l 106 0 l 106 653 l 217 653 "},"o":{"ha":781,"x_min":0,"x_max":0,"o":"m 390 -18 b 47 325 200 -18 47 133 b 390 671 47 517 199 671 b 733 325 582 671 733 517 b 390 -18 733 133 581 -18 m 390 568 b 158 326 253 568 158 458 b 390 85 158 193 253 85 b 622 326 528 85 622 193 b 390 568 622 458 528 568 "},"p":{"ha":801,"x_min":0,"x_max":0,"o":"m 418 568 b 206 333 289 568 206 456 b 419 85 206 206 281 85 b 638 332 563 85 638 200 b 418 568 638 463 556 568 m 211 560 l 214 560 b 439 671 268 632 349 671 b 751 325 631 671 751 506 b 438 -18 751 139 633 -18 b 214 92 349 -18 267 21 l 211 92 l 211 -367 l 100 -367 l 100 653 l 211 653 "},"q":{"ha":801,"x_min":0,"x_max":0,"o":"m 376 568 b 164 333 247 568 164 456 b 378 85 164 206 239 85 b 596 332 521 85 596 200 b 376 568 596 463 514 568 m 701 -367 l 590 -367 l 590 92 l 588 92 b 364 -18 535 21 451 -18 b 50 324 168 -18 50 139 b 363 671 50 506 169 671 b 588 560 451 671 533 632 l 590 560 l 590 653 l 701 653 "},"r":{"ha":465,"x_min":0,"x_max":0,"o":"m 211 582 l 214 582 b 358 671 253 633 286 671 b 458 640 396 671 426 658 l 406 539 b 339 568 383 554 368 568 b 211 326 217 568 211 411 l 211 0 l 100 0 l 100 653 l 211 653 "},"s":{"ha":554,"x_min":0,"x_max":0,"o":"m 369 501 b 281 568 354 536 321 568 b 200 496 242 568 200 538 b 351 382 200 436 275 414 b 503 194 428 350 503 304 b 282 -18 503 71 403 -18 b 51 147 172 -18 86 44 l 150 189 b 283 85 178 128 210 85 b 389 185 343 85 389 125 b 94 486 389 331 94 281 b 289 671 94 596 183 671 b 463 550 364 671 433 618 "},"t":{"ha":333,"x_min":0,"x_max":0,"o":"m 222 0 l 111 0 l 111 550 l 43 550 l 43 653 l 111 653 l 111 888 l 222 888 l 222 653 l 339 653 l 339 550 l 222 550 "},"u":{"ha":711,"x_min":0,"x_max":0,"o":"m 208 289 b 356 85 208 179 221 85 b 503 289 490 85 503 179 l 503 653 l 614 653 l 614 276 b 356 -18 614 103 549 -18 b 97 276 163 -18 97 103 l 97 653 l 208 653 "},"v":{"ha":643,"x_min":0,"x_max":0,"o":"m 322 214 l 517 653 l 642 653 l 322 -43 l 1 653 l 128 653 "},"w":{"ha":1056,"x_min":0,"x_max":0,"o":"m 324 211 l 526 703 l 731 211 l 925 653 l 1051 653 l 728 -46 l 526 440 l 325 -46 l 4 653 l 131 653 "},"x":{"ha":692,"x_min":0,"x_max":0,"o":"m 42 653 l 178 653 l 349 431 l 519 653 l 658 653 l 419 347 l 690 0 l 556 0 l 349 265 l 140 0 l 1 0 l 279 347 "},"y":{"ha":692,"x_min":0,"x_max":0,"o":"m -3 653 l 126 653 l 357 185 l 568 653 l 694 653 l 213 -367 l 86 -367 l 297 61 "},"z":{"ha":721,"x_min":0,"x_max":0,"o":"m 689 103 l 689 0 l 14 0 l 485 550 l 101 550 l 101 653 l 708 653 l 239 103 "},"{":{"ha":464,"x_min":0,"x_max":0,"o":"m 71 425 b 175 647 165 454 175 526 l 175 907 b 293 1094 175 1019 251 1094 l 394 1094 l 394 992 l 339 992 b 289 886 289 992 289 950 l 289 624 b 183 381 289 461 201 392 b 289 136 201 369 289 300 l 289 -125 b 339 -231 289 -189 289 -231 l 394 -231 l 394 -333 l 293 -333 b 175 -146 251 -333 175 -258 l 175 113 b 71 336 175 235 165 307 "},"|":{"ha":792,"x_min":0,"x_max":0,"o":"m 450 -297 l 342 -297 l 342 1092 l 450 1092 "},"}":{"ha":464,"x_min":0,"x_max":0,"o":"m 393 336 b 289 113 299 307 289 235 l 289 -146 b 171 -333 289 -258 213 -333 l 69 -333 l 69 -231 l 125 -231 b 175 -125 175 -231 175 -189 l 175 136 b 281 381 175 300 263 369 b 175 624 263 392 175 461 l 175 886 b 125 992 175 950 175 992 l 69 992 l 69 1094 l 171 1094 b 289 907 213 1094 289 1019 l 289 647 b 393 425 289 526 299 454 "},"~":{"ha":856,"x_min":0,"x_max":0,"o":"m 92 278 b 285 482 132 389 194 482 b 436 419 332 482 388 451 b 571 344 483 389 533 344 b 669 479 610 344 647 404 l 764 440 b 571 236 726 329 663 236 b 429 297 524 236 471 269 b 285 372 368 338 322 372 b 188 239 246 372 211 314 "},"¡":{"ha":469,"x_min":0,"x_max":0,"o":"m 235 671 b 313 594 278 671 313 636 b 235 515 313 551 278 515 b 157 594 192 515 157 551 b 235 671 157 636 192 671 m 292 -394 l 178 -394 l 178 440 l 292 440 "},"¢":{"ha":856,"x_min":0,"x_max":0,"o":"m 682 668 l 679 668 b 515 774 639 719 582 764 l 515 296 b 682 407 585 306 643 353 l 685 407 l 685 258 b 515 193 635 225 576 197 l 515 38 l 424 38 l 424 194 b 132 528 260 213 132 365 b 424 874 132 699 251 853 l 424 1021 l 515 1021 l 515 876 b 682 815 575 871 632 850 m 424 771 b 246 536 315 750 246 642 b 424 297 246 426 313 319 "},"£":{"ha":856,"x_min":0,"x_max":0,"o":"m 113 372 l 113 461 l 251 461 l 225 513 b 136 768 182 597 136 669 b 446 1065 136 939 278 1065 b 750 751 628 1065 749 929 l 636 721 b 449 954 635 840 586 954 b 256 765 343 954 256 874 b 379 461 256 656 338 558 l 576 461 l 576 372 l 410 372 b 419 310 415 351 419 331 b 374 160 419 260 399 203 l 381 157 b 582 97 431 140 536 97 b 708 201 644 97 681 153 l 803 144 b 589 -17 764 58 689 -17 b 419 24 532 -17 474 4 b 267 64 364 43 313 64 b 142 -21 210 64 169 26 l 51 40 b 254 175 96 113 165 174 b 299 304 281 213 299 257 b 289 372 299 326 296 350 "},"⁄":{"ha":224,"x_min":0,"x_max":0,"o":"m 447 1032 l -162 -18 l -224 15 l 386 1065 "},"¥":{"ha":856,"x_min":0,"x_max":0,"o":"m 369 356 l 40 356 l 40 444 l 369 444 l 293 583 l 40 583 l 40 672 l 242 672 l 26 1047 l 161 1047 l 428 583 l 694 1047 l 829 1047 l 614 672 l 815 672 l 815 583 l 563 583 l 486 444 l 815 444 l 815 356 l 486 356 l 486 0 l 369 0 "},"ƒ":{"ha":856,"x_min":0,"x_max":0,"o":"m 726 1042 b 657 1057 704 1051 682 1057 b 568 1013 618 1057 588 1049 b 532 886 550 976 540 925 l 497 697 l 664 697 l 649 603 l 481 603 l 400 167 b 325 -83 386 89 369 -17 b 76 -194 269 -164 171 -194 l 7 -189 l 29 -85 l 76 -86 b 286 172 242 -86 263 38 l 365 603 l 251 603 l 267 697 l 383 697 l 422 917 b 653 1164 446 1053 493 1164 b 747 1146 685 1164 717 1158 "},"§":{"ha":822,"x_min":0,"x_max":0,"o":"m 411 558 b 258 406 326 558 258 490 b 411 251 258 321 326 251 b 565 406 496 251 565 321 b 411 558 565 490 496 558 m 258 6 b 400 -156 258 -87 299 -156 b 543 -17 489 -156 543 -107 b 382 144 543 86 464 114 b 226 221 332 165 269 186 b 142 404 168 267 142 331 b 288 631 142 506 193 592 b 165 826 210 669 165 738 b 428 1065 165 972 289 1065 b 626 972 500 1065 583 1032 b 676 793 661 924 675 853 l 565 793 b 426 958 560 897 518 958 b 279 818 343 958 279 906 b 481 650 279 710 379 686 b 681 401 581 614 681 564 b 535 179 681 299 624 225 b 657 -24 618 136 657 71 b 399 -262 657 -174 544 -262 b 146 6 221 -262 153 -158 "},"¤":{"ha":856,"x_min":0,"x_max":0,"o":"m 142 742 l 200 683 b 428 764 275 738 339 764 b 656 683 517 764 581 738 l 714 742 l 764 692 l 708 636 b 782 417 760 557 782 496 b 708 197 782 338 760 276 l 764 142 l 714 92 l 656 150 b 428 69 581 96 517 69 b 200 150 339 69 275 96 l 142 92 l 92 142 l 147 197 b 74 417 96 276 74 338 b 147 636 74 496 96 557 l 92 692 m 428 675 b 163 417 278 672 160 565 b 428 158 165 278 282 158 b 693 417 574 158 690 278 b 428 675 696 565 578 672 "},"'":{"ha":401,"x_min":0,"x_max":0,"o":"m 267 1047 l 242 592 l 161 592 l 136 1047 "},"“":{"ha":635,"x_min":0,"x_max":0,"o":"m 318 711 l 476 1065 l 551 1036 l 421 674 m 85 711 l 243 1065 l 318 1036 l 188 674 "},"«":{"ha":694,"x_min":0,"x_max":0,"o":"m 600 103 l 526 46 l 293 333 l 526 629 l 600 571 l 413 333 m 364 103 l 290 46 l 57 333 l 290 629 l 364 571 l 176 333 "},"‹":{"ha":458,"x_min":0,"x_max":0,"o":"m 364 103 l 290 46 l 57 333 l 290 629 l 364 571 l 176 333 "},"›":{"ha":458,"x_min":0,"x_max":0,"o":"m 282 333 l 94 571 l 168 629 l 401 333 l 168 46 l 94 103 "},"ﬁ":{"ha":721,"x_min":0,"x_max":0,"o":"m 210 0 l 99 0 l 99 550 l 38 550 l 38 653 l 99 653 l 99 913 b 128 1082 99 967 99 1035 b 296 1164 164 1140 229 1164 b 375 1150 322 1164 349 1158 l 375 1038 b 300 1053 350 1046 328 1053 b 210 874 210 1053 210 989 l 210 653 l 375 653 l 375 550 l 210 550 m 594 0 l 483 0 l 483 653 l 594 653 m 539 978 b 618 899 582 978 618 942 b 539 819 618 854 582 819 b 460 899 496 819 460 854 b 539 978 460 942 496 978 "},"ﬂ":{"ha":696,"x_min":0,"x_max":0,"o":"m 594 0 l 483 0 l 483 1146 l 594 1146 m 210 0 l 99 0 l 99 550 l 38 550 l 38 653 l 99 653 l 99 913 b 128 1082 99 967 99 1035 b 296 1164 164 1140 229 1164 b 375 1150 322 1164 349 1158 l 375 1038 b 300 1053 350 1046 328 1053 b 210 874 210 1053 210 989 l 210 653 l 375 653 l 375 550 l 210 550 "},"–":{"ha":694,"x_min":0,"x_max":0,"o":"m 694 386 l 694 283 l 0 283 l 0 386 "},"†":{"ha":822,"x_min":0,"x_max":0,"o":"m 468 1047 l 468 790 l 700 790 l 700 682 l 468 682 l 468 -226 l 354 -226 l 354 682 l 122 682 l 122 790 l 354 790 l 354 1047 "},"‡":{"ha":822,"x_min":0,"x_max":0,"o":"m 468 1047 l 468 790 l 700 790 l 700 682 l 468 682 l 468 178 l 700 178 l 700 69 l 468 69 l 468 -226 l 354 -226 l 354 69 l 122 69 l 122 178 l 354 178 l 354 682 l 122 682 l 122 790 l 354 790 l 354 1047 "},"·":{"ha":428,"x_min":0,"x_max":0,"o":"m 214 432 b 292 356 257 432 292 397 b 214 276 292 313 257 276 b 136 356 171 276 136 313 b 214 432 136 397 171 432 "},"¶":{"ha":822,"x_min":0,"x_max":0,"o":"m 742 957 l 661 957 l 661 -212 l 571 -212 l 571 957 l 458 957 l 458 -212 l 368 -212 l 368 393 b 82 690 211 393 96 503 b 381 1047 69 858 197 1047 l 742 1047 "},"•":{"ha":822,"x_min":0,"x_max":0,"o":"m 411 263 b 150 524 268 263 150 378 b 411 786 149 669 265 786 b 674 524 557 786 674 669 b 411 263 674 378 554 263 "},"‚":{"ha":401,"x_min":0,"x_max":0,"o":"m 318 117 l 160 -239 l 85 -208 l 215 153 "},"„":{"ha":644,"x_min":0,"x_max":0,"o":"m 318 117 l 160 -239 l 85 -208 l 215 153 m 561 117 l 403 -239 l 328 -208 l 458 153 "},"”":{"ha":635,"x_min":0,"x_max":0,"o":"m 318 1028 l 160 674 l 85 703 l 215 1065 m 551 1028 l 393 674 l 318 703 l 449 1065 "},"»":{"ha":694,"x_min":0,"x_max":0,"o":"m 282 333 l 94 571 l 168 629 l 401 333 l 168 46 l 94 103 m 518 333 l 331 571 l 404 629 l 638 333 l 404 46 l 331 103 "},"…":{"ha":1389,"x_min":0,"x_max":0,"o":"m 233 138 b 311 61 276 138 311 103 b 233 -18 311 18 276 -18 b 156 61 190 -18 156 18 b 233 138 156 103 190 138 m 694 138 b 772 61 738 138 772 103 b 694 -18 772 18 738 -18 b 617 61 651 -18 617 18 b 694 138 617 103 651 138 m 1156 138 b 1233 61 1199 138 1233 103 b 1156 -18 1233 18 1199 -18 b 1078 61 1113 -18 1078 18 b 1156 138 1078 103 1113 138 "},"‰":{"ha":1683,"x_min":0,"x_max":0,"o":"m 281 976 b 136 836 203 976 136 914 b 281 697 136 760 203 697 b 425 836 358 697 425 760 b 281 976 425 914 358 976 m 888 1032 l 282 -18 l 222 18 l 832 1065 m 833 350 b 689 210 756 350 689 288 b 833 71 689 133 756 71 b 978 210 911 71 978 133 b 833 350 978 288 911 350 m 281 1065 b 514 836 408 1065 514 965 b 281 608 514 708 407 608 b 47 836 154 608 47 707 b 281 1065 47 965 153 1065 m 833 439 b 1067 210 961 439 1067 339 b 833 -18 1067 82 960 -18 b 600 210 707 -18 600 81 b 833 439 600 339 706 439 m 1403 439 b 1636 210 1531 439 1636 339 b 1403 -18 1636 82 1529 -18 b 1169 210 1276 -18 1169 81 b 1403 439 1169 339 1275 439 m 1403 350 b 1258 210 1325 350 1258 288 b 1403 71 1258 133 1325 71 b 1547 210 1481 71 1547 133 b 1403 350 1547 288 1481 350 "},"¿":{"ha":678,"x_min":0,"x_max":0,"o":"m 114 203 b 340 443 110 336 206 443 b 567 217 469 443 567 344 b 376 4 567 92 482 39 b 200 -156 288 -24 200 -42 b 343 -300 200 -240 260 -300 b 479 -162 422 -300 479 -239 b 471 -96 479 -140 476 -118 l 586 -96 l 592 -169 b 336 -407 592 -314 474 -407 b 86 -157 194 -407 86 -299 b 161 29 86 -89 111 -17 b 346 110 210 72 285 92 b 453 225 406 126 453 156 b 339 336 453 288 401 336 b 226 203 261 336 226 272 m 342 671 b 419 593 385 671 419 636 b 342 515 419 550 385 515 b 264 593 299 515 264 550 b 342 671 264 636 299 671 "},"`":{"ha":497,"x_min":0,"x_max":0,"o":"m 225 1033 l 390 806 l 321 767 l 108 981 "},"´":{"ha":497,"x_min":0,"x_max":0,"o":"m 390 981 l 178 767 l 108 806 l 274 1033 "},"ˆ":{"ha":653,"x_min":0,"x_max":0,"o":"m 325 1024 l 544 839 l 464 776 l 325 894 l 188 776 l 108 839 "},"˜":{"ha":703,"x_min":0,"x_max":0,"o":"m 108 871 b 250 981 140 926 181 981 b 363 949 292 981 329 965 b 451 917 397 933 426 917 b 529 983 490 917 513 953 l 594 931 b 447 818 569 869 515 818 b 343 850 414 818 378 833 b 246 881 308 865 275 881 b 176 817 207 881 190 847 "},"¯":{"ha":693,"x_min":0,"x_max":0,"o":"m 585 947 l 585 853 l 110 853 l 110 947 "},"˘":{"ha":674,"x_min":0,"x_max":0,"o":"m 206 994 b 338 900 229 932 269 900 b 469 994 406 900 446 932 l 565 994 b 338 806 550 879 451 806 b 110 994 225 806 125 879 "},"˙":{"ha":497,"x_min":0,"x_max":0,"o":"m 249 994 b 324 919 290 994 324 961 b 249 844 324 878 290 844 b 174 919 207 844 174 878 b 249 994 174 961 207 994 "},"¨":{"ha":649,"x_min":0,"x_max":0,"o":"m 188 979 b 263 904 229 979 263 946 b 188 829 263 863 229 829 b 113 904 146 829 113 863 b 188 979 113 946 146 979 m 461 979 b 536 904 503 979 536 946 b 461 829 536 863 503 829 b 386 904 419 829 386 863 b 461 979 386 946 419 979 "},"˚":{"ha":486,"x_min":0,"x_max":0,"o":"m 244 1038 b 379 903 318 1038 379 976 b 244 767 379 828 319 767 b 108 903 169 767 108 828 b 244 1038 108 976 169 1038 m 244 968 b 178 903 208 968 178 939 b 244 836 178 867 208 836 b 310 903 281 836 310 867 b 244 968 310 939 281 968 "},"¸":{"ha":451,"x_min":0,"x_max":0,"o":"m 186 -276 l 108 -237 l 242 -32 l 344 -74 "},"˝":{"ha":649,"x_min":0,"x_max":0,"o":"m 178 810 l 122 825 l 204 1050 l 310 1031 m 396 810 l 340 825 l 422 1050 l 528 1031 "},"˛":{"ha":468,"x_min":0,"x_max":0,"o":"m 313 0 l 313 -3 b 201 -142 269 -32 201 -83 b 278 -204 201 -186 239 -204 b 361 -179 307 -204 336 -194 l 347 -271 b 260 -292 319 -285 290 -292 b 108 -162 183 -292 108 -244 b 224 0 108 -90 167 -35 "},"ˇ":{"ha":653,"x_min":0,"x_max":0,"o":"m 328 776 l 108 961 l 189 1024 l 328 906 l 465 1024 l 544 961 "},"—":{"ha":1389,"x_min":0,"x_max":0,"o":"m 1208 386 l 1208 283 l 181 283 l 181 386 "},"Æ":{"ha":1389,"x_min":0,"x_max":0,"o":"m 261 294 l 138 0 l 8 0 l 475 1047 l 935 1047 l 982 939 l 558 939 l 689 626 l 1101 626 l 1150 518 l 736 518 l 907 108 l 1332 108 l 1378 0 l 832 0 l 708 294 m 489 815 l 311 403 l 661 403 "},"ª":{"ha":481,"x_min":0,"x_max":0,"o":"m 242 1004 b 101 863 157 1004 101 936 b 242 713 101 786 151 713 b 383 861 335 713 383 782 b 242 1004 383 940 331 1004 m 453 663 l 381 663 l 381 717 l 378 717 b 232 651 342 674 292 651 b 29 857 107 651 29 749 b 233 1065 29 969 106 1065 b 378 999 290 1065 343 1040 l 381 999 l 381 1054 l 453 1054 "},"Ł":{"ha":521,"x_min":0,"x_max":0,"o":"m 106 443 l 0 375 l 0 486 l 106 554 l 106 1047 l 222 1047 l 222 631 l 403 747 l 403 636 l 222 519 l 222 108 l 511 108 l 511 0 l 106 0 "},"Ø":{"ha":1197,"x_min":0,"x_max":0,"o":"m 869 861 b 599 957 797 921 703 957 b 169 524 358 957 169 761 b 263 256 169 422 204 329 m 325 192 b 599 90 400 128 494 90 b 1028 524 836 90 1028 288 b 932 797 1028 626 993 721 m 182 175 b 53 522 101 268 53 389 b 599 1065 53 822 300 1065 b 947 939 731 1065 853 1018 l 1075 1065 l 1139 1003 l 1011 876 b 1144 522 1094 782 1144 658 b 599 -18 1144 221 897 -18 b 244 111 464 -18 340 31 l 119 -14 l 58 51 "},"Œ":{"ha":1653,"x_min":0,"x_max":0,"o":"m 1013 201 l 1010 201 b 599 -18 919 63 764 -19 b 53 522 300 -18 53 221 b 599 1065 53 822 300 1065 b 1010 842 764 1065 917 982 l 1013 842 l 1013 1047 l 1560 1047 l 1560 939 l 1129 939 l 1129 628 l 1547 628 l 1547 519 l 1129 519 l 1129 108 l 1560 108 l 1560 0 l 1013 0 m 599 957 b 169 524 358 957 169 761 b 599 90 169 288 361 90 b 1028 524 836 90 1028 288 b 599 957 1028 761 839 957 "},"º":{"ha":468,"x_min":0,"x_max":0,"o":"m 235 651 b 11 857 111 651 11 742 b 235 1065 11 972 110 1065 b 458 857 360 1065 458 972 b 235 651 458 742 358 651 m 235 1004 b 83 858 146 1004 83 938 b 235 713 83 778 146 713 b 386 858 324 713 386 778 b 235 1004 386 938 324 1004 "},"æ":{"ha":1171,"x_min":0,"x_max":0,"o":"m 1011 397 b 819 568 996 492 917 568 b 621 397 724 568 635 492 m 317 310 b 151 194 247 310 151 278 b 315 85 151 110 244 85 b 492 200 389 85 492 110 b 317 310 492 285 382 310 m 610 303 b 824 85 611 182 697 85 b 1022 219 918 85 979 142 l 1117 165 b 815 -18 1054 49 949 -18 b 565 111 718 -18 624 25 b 321 -18 511 17 428 -18 b 40 192 190 -18 40 40 b 313 408 40 343 182 408 b 499 353 385 408 439 393 b 311 568 497 482 453 568 b 111 526 243 568 176 549 l 111 632 b 318 671 181 653 246 671 b 560 536 415 671 518 629 b 813 671 611 622 715 671 b 1124 303 1022 671 1132 497 "},"ı":{"ha":364,"x_min":0,"x_max":0,"o":"m 238 0 l 126 0 l 126 653 l 238 653 "},"ł":{"ha":358,"x_min":0,"x_max":0,"o":"m 124 514 l 21 446 l 21 544 l 124 613 l 124 1146 l 235 1146 l 235 688 l 338 756 l 338 657 l 235 589 l 235 0 l 124 0 "},"ø":{"ha":781,"x_min":0,"x_max":0,"o":"m 532 519 b 390 568 494 550 446 568 b 158 326 253 568 158 458 b 199 186 158 274 174 225 m 251 131 b 390 85 288 101 336 85 b 622 326 528 85 622 193 b 582 463 622 378 608 425 m 122 110 b 47 325 75 168 47 243 b 390 671 47 517 199 671 b 607 594 474 671 550 642 l 699 686 l 753 633 l 660 540 b 733 325 706 483 733 407 b 390 -18 733 133 581 -18 b 176 56 310 -18 235 10 l 82 -39 l 28 15 "},"œ":{"ha":1306,"x_min":0,"x_max":0,"o":"m 743 303 b 957 85 744 182 831 85 b 1156 219 1051 85 1113 142 l 1250 165 b 949 -18 1188 49 1082 -18 b 679 138 842 -18 728 40 b 390 -18 622 38 504 -18 b 47 325 200 -18 47 133 b 390 671 47 517 199 671 b 679 513 511 668 626 611 b 946 671 731 614 833 668 b 1258 303 1156 671 1269 497 m 1143 397 b 951 568 1128 492 1049 568 b 753 397 856 568 767 492 m 393 568 b 161 326 256 568 161 458 b 393 85 161 193 256 85 b 625 326 531 85 625 193 b 393 568 625 458 531 568 "},"ß":{"ha":801,"x_min":0,"x_max":0,"o":"m 100 550 l 39 550 l 39 653 l 100 653 l 100 853 b 154 1067 100 926 107 1007 b 375 1164 206 1133 294 1164 b 644 903 526 1164 644 1056 b 528 700 644 819 603 738 b 751 365 665 653 751 507 b 353 -18 751 149 564 -15 l 353 85 b 638 369 508 94 638 210 b 539 575 638 447 601 526 b 353 636 486 615 418 631 l 353 739 b 533 908 456 738 533 803 b 374 1061 533 1000 464 1061 b 229 978 314 1061 251 1036 b 211 801 210 931 211 853 l 211 0 l 100 0 "},"¹":{"ha":513,"x_min":0,"x_max":0,"o":"m 158 982 l 199 1054 l 354 1054 l 354 426 l 271 426 l 271 982 "},"¬":{"ha":856,"x_min":0,"x_max":0,"o":"m 656 410 l 92 410 l 92 518 l 764 518 l 764 143 l 656 143 "},"µ":{"ha":711,"x_min":0,"x_max":0,"o":"m 208 289 b 356 85 208 179 221 85 b 503 289 490 85 503 179 l 503 653 l 614 653 l 614 276 b 356 -18 614 103 549 -18 b 208 47 308 -18 268 -10 l 208 -367 l 97 -367 l 97 653 l 208 653 "},"™":{"ha":1306,"x_min":0,"x_max":0,"o":"m 1257 463 l 1174 463 l 1174 964 l 1171 964 l 971 463 l 917 463 l 722 964 l 719 964 l 719 463 l 636 463 l 636 1047 l 776 1047 l 944 626 l 1118 1047 l 1257 1047 m 524 964 l 329 964 l 329 463 l 246 463 l 246 964 l 50 964 l 50 1047 l 524 1047 "},"Ð":{"ha":942,"x_min":0,"x_max":0,"o":"m 106 514 l 0 514 l 0 614 l 106 614 l 106 1047 l 303 1047 b 711 921 460 1047 588 1026 b 885 522 831 818 885 678 b 714 132 885 369 829 235 b 300 0 589 21 464 0 l 106 0 m 307 108 b 638 217 435 108 542 126 b 768 524 724 297 768 407 b 632 838 768 643 722 758 b 307 939 536 922 431 939 l 222 939 l 222 614 l 408 614 l 408 514 l 222 514 l 222 108 "},"½":{"ha":1283,"x_min":0,"x_max":0,"o":"m 139 982 l 179 1054 l 335 1054 l 335 426 l 251 426 l 251 982 m 1144 72 l 1144 0 l 704 0 l 1022 347 b 1061 453 1050 378 1061 411 b 933 567 1061 522 1007 567 b 804 444 851 567 804 518 l 721 444 b 931 639 724 554 811 639 b 1144 453 1051 639 1144 563 b 1100 321 1144 408 1132 356 l 871 72 m 899 1032 l 289 -18 l 228 15 l 838 1065 "},"±":{"ha":856,"x_min":0,"x_max":0,"o":"m 482 692 l 482 479 l 764 479 l 764 371 l 482 371 l 482 158 l 374 158 l 374 371 l 92 371 l 92 479 l 374 479 l 374 692 m 92 108 l 764 108 l 764 0 l 92 0 "},"Þ":{"ha":699,"x_min":0,"x_max":0,"o":"m 222 0 l 106 0 l 106 1047 l 222 1047 l 222 853 l 278 853 b 538 797 368 853 461 850 b 656 558 615 743 656 651 b 556 333 656 474 621 388 b 307 264 485 275 394 264 l 222 264 m 222 372 l 300 372 b 539 561 429 372 539 411 b 265 744 539 732 401 744 l 222 744 "},"¼":{"ha":1283,"x_min":0,"x_max":0,"o":"m 1144 174 l 1144 101 l 1061 101 l 1061 0 l 978 0 l 978 101 l 638 101 l 1060 664 l 1061 664 l 1061 174 m 978 438 l 975 438 l 778 174 l 978 174 m 139 982 l 179 1054 l 335 1054 l 335 426 l 251 426 l 251 982 m 961 1032 l 351 -18 l 290 15 l 900 1065 "},"÷":{"ha":856,"x_min":0,"x_max":0,"o":"m 92 410 l 764 410 l 764 301 l 92 301 m 428 172 b 507 93 471 172 507 136 b 428 14 507 49 471 14 b 349 93 385 14 349 49 b 428 172 349 136 385 172 m 428 697 b 507 618 471 697 507 661 b 428 539 507 574 471 539 b 349 618 385 539 349 574 b 428 697 349 661 385 697 "},"¦":{"ha":792,"x_min":0,"x_max":0,"o":"m 450 -124 l 342 -124 l 342 224 l 450 224 m 450 571 l 342 571 l 342 918 l 450 918 "},"°":{"ha":556,"x_min":0,"x_max":0,"o":"m 486 857 b 278 649 486 742 392 649 b 69 857 163 649 69 742 b 278 1065 68 971 163 1065 b 486 857 392 1065 486 971 m 419 857 b 276 999 419 935 356 999 b 136 857 199 999 135 935 b 278 715 136 778 199 715 b 419 857 356 715 419 778 "},"þ":{"ha":801,"x_min":0,"x_max":0,"o":"m 211 560 l 214 560 b 439 671 268 632 349 671 b 751 325 631 671 751 506 b 438 -18 751 139 633 -18 b 214 92 349 -18 267 21 l 211 92 l 211 -367 l 100 -367 l 100 1146 l 211 1146 m 418 568 b 206 333 289 568 206 456 b 419 85 206 206 281 85 b 638 332 563 85 638 200 b 418 568 638 463 556 568 "},"¾":{"ha":1283,"x_min":0,"x_max":0,"o":"m 1172 174 l 1172 101 l 1089 101 l 1089 0 l 1006 0 l 1006 101 l 665 101 l 1088 664 l 1089 664 l 1089 174 m 1006 438 l 1003 438 l 806 174 l 1006 174 m 1042 1032 l 432 -18 l 371 15 l 981 1065 m 304 793 b 431 890 376 793 431 828 b 319 993 431 957 372 993 b 215 900 258 993 222 958 l 132 900 b 321 1065 143 1000 208 1065 b 514 893 431 1065 514 997 b 426 756 514 838 482 782 b 524 601 493 729 524 667 b 313 415 524 483 436 415 b 111 589 203 415 113 485 l 194 589 b 315 488 194 525 247 488 b 440 606 389 488 440 538 b 304 721 440 678 386 724 "},"²":{"ha":513,"x_min":0,"x_max":0,"o":"m 476 499 l 476 426 l 36 426 l 354 774 b 393 879 382 804 393 838 b 265 993 393 949 339 993 b 136 871 183 993 136 944 l 53 871 b 263 1065 56 981 143 1065 b 476 879 383 1065 476 989 b 432 747 476 835 464 782 l 203 499 "},"®":{"ha":1111,"x_min":0,"x_max":0,"o":"m 556 -18 b 11 524 251 -18 11 222 b 556 1065 11 825 251 1065 b 1100 524 860 1065 1100 825 b 556 -18 1100 222 860 -18 m 556 65 b 1017 524 804 65 1017 268 b 556 982 1017 779 804 982 b 94 524 307 982 94 779 b 556 65 94 268 307 65 m 814 231 l 714 231 l 536 504 l 436 504 l 436 231 l 353 231 l 353 824 l 611 824 b 822 667 718 824 822 794 b 635 504 822 550 740 507 m 536 588 b 739 668 610 588 739 574 b 594 740 739 729 658 740 l 436 740 l 436 588 "},"−":{"ha":856,"x_min":0,"x_max":0,"o":"m 92 410 l 764 410 l 764 301 l 92 301 "},"ð":{"ha":779,"x_min":0,"x_max":0,"o":"m 190 1154 b 381 1018 283 1094 317 1072 l 572 1146 l 628 1089 l 442 964 b 732 356 510 897 732 685 b 390 -17 732 94 543 -17 b 47 326 199 -17 47 138 b 379 668 47 501 181 668 b 596 579 503 668 568 606 b 361 911 550 708 461 818 l 176 788 l 122 844 l 303 965 b 129 1090 279 986 231 1028 m 160 328 b 392 86 160 185 264 86 b 622 328 529 86 622 197 b 393 569 622 456 531 569 b 160 328 257 569 160 464 "},"×":{"ha":856,"x_min":0,"x_max":0,"o":"m 168 692 l 428 432 l 686 692 l 764 615 l 504 356 l 764 96 l 686 19 l 428 279 l 168 19 l 92 96 l 351 356 l 92 615 "},"³":{"ha":513,"x_min":0,"x_max":0,"o":"m 243 793 b 369 890 315 793 369 828 b 258 993 369 957 311 993 b 154 900 197 993 161 958 l 71 900 b 260 1065 82 1000 147 1065 b 453 893 369 1065 453 997 b 365 756 453 838 421 782 b 463 601 432 729 463 667 b 251 415 463 483 375 415 b 50 589 142 415 51 485 l 133 589 b 254 488 133 525 186 488 b 379 606 328 488 379 538 b 243 721 379 678 325 724 "},"©":{"ha":1111,"x_min":0,"x_max":0,"o":"m 556 -18 b 11 524 251 -18 11 222 b 556 1065 11 825 251 1065 b 1100 524 860 1065 1100 825 b 556 -18 1100 222 860 -18 m 556 65 b 1017 524 804 65 1017 268 b 556 982 1017 779 804 982 b 94 524 307 982 94 779 b 556 65 94 268 307 65 m 747 635 b 575 757 731 711 667 757 b 358 531 425 757 358 639 b 578 300 358 403 439 300 b 747 426 669 300 728 347 l 832 426 b 578 217 815 296 703 217 b 275 528 394 217 275 356 b 576 840 275 707 389 840 b 832 635 704 840 807 764 "},"Á":{"ha":971,"x_min":0,"x_max":0,"o":"m 263 297 l 136 0 l 8 0 l 492 1097 l 963 0 l 833 0 l 710 297 m 489 825 l 310 406 l 664 406 m 683 1340 l 471 1126 l 401 1165 l 567 1393 "},"Â":{"ha":971,"x_min":0,"x_max":0,"o":"m 263 297 l 136 0 l 8 0 l 492 1097 l 963 0 l 833 0 l 710 297 m 489 825 l 310 406 l 664 406 m 485 1383 l 704 1199 l 624 1136 l 485 1254 l 347 1136 l 268 1199 "},"Ä":{"ha":971,"x_min":0,"x_max":0,"o":"m 263 297 l 136 0 l 8 0 l 492 1097 l 963 0 l 833 0 l 710 297 m 489 825 l 310 406 l 664 406 m 349 1339 b 424 1264 390 1339 424 1306 b 349 1189 424 1222 390 1189 b 274 1264 307 1189 274 1222 b 349 1339 274 1306 307 1339 m 622 1339 b 697 1264 664 1339 697 1306 b 622 1189 697 1222 664 1189 b 547 1264 581 1189 547 1222 b 622 1339 547 1306 581 1339 "},"À":{"ha":971,"x_min":0,"x_max":0,"o":"m 263 297 l 136 0 l 8 0 l 492 1097 l 963 0 l 833 0 l 710 297 m 489 825 l 310 406 l 664 406 m 407 1393 l 572 1165 l 503 1126 l 290 1340 "},"Å":{"ha":971,"x_min":0,"x_max":0,"o":"m 263 297 l 136 0 l 8 0 l 492 1097 l 963 0 l 833 0 l 710 297 m 489 825 l 310 406 l 664 406 m 488 1397 b 622 1263 561 1397 622 1336 b 488 1126 622 1188 563 1126 b 351 1263 413 1126 351 1188 b 488 1397 351 1336 413 1397 m 488 1328 b 421 1263 451 1328 421 1299 b 488 1196 421 1226 451 1196 b 553 1263 524 1196 553 1226 b 488 1328 553 1299 524 1328 "},"Ã":{"ha":971,"x_min":0,"x_max":0,"o":"m 263 297 l 136 0 l 8 0 l 492 1097 l 963 0 l 833 0 l 710 297 m 489 825 l 310 406 l 664 406 m 243 1231 b 385 1340 275 1286 315 1340 b 497 1308 426 1340 464 1325 b 586 1276 532 1293 561 1276 b 664 1343 625 1276 647 1313 l 729 1290 b 582 1178 704 1229 650 1178 b 478 1210 549 1178 513 1193 b 381 1240 443 1225 410 1240 b 311 1176 342 1240 325 1207 "},"Ç":{"ha":996,"x_min":0,"x_max":0,"o":"m 904 818 b 585 957 821 904 706 957 b 163 524 351 957 163 754 b 588 90 163 293 353 90 b 904 229 706 90 821 146 l 904 85 b 592 -18 814 19 703 -18 b 46 519 296 -18 46 222 b 592 1065 46 819 292 1065 b 904 963 708 1065 811 1032 m 458 -276 l 381 -237 l 514 -32 l 617 -74 "},"É":{"ha":742,"x_min":0,"x_max":0,"o":"m 106 1047 l 649 1047 l 649 939 l 222 939 l 222 628 l 636 628 l 636 519 l 222 519 l 222 108 l 649 108 l 649 0 l 106 0 m 568 1340 l 356 1126 l 286 1165 l 451 1393 "},"Ê":{"ha":742,"x_min":0,"x_max":0,"o":"m 106 1047 l 649 1047 l 649 939 l 222 939 l 222 628 l 636 628 l 636 519 l 222 519 l 222 108 l 649 108 l 649 0 l 106 0 m 369 1383 l 589 1199 l 508 1136 l 369 1254 l 232 1136 l 153 1199 "},"Ë":{"ha":742,"x_min":0,"x_max":0,"o":"m 106 1047 l 649 1047 l 649 939 l 222 939 l 222 628 l 636 628 l 636 519 l 222 519 l 222 108 l 649 108 l 649 0 l 106 0 m 235 1339 b 310 1264 276 1339 310 1306 b 235 1189 310 1222 276 1189 b 160 1264 193 1189 160 1222 b 235 1339 160 1306 193 1339 m 508 1339 b 583 1264 550 1339 583 1306 b 508 1189 583 1222 550 1189 b 433 1264 467 1189 433 1222 b 508 1339 433 1306 467 1339 "},"È":{"ha":742,"x_min":0,"x_max":0,"o":"m 106 1047 l 649 1047 l 649 939 l 222 939 l 222 628 l 636 628 l 636 519 l 222 519 l 222 108 l 649 108 l 649 0 l 106 0 m 313 1393 l 478 1165 l 408 1126 l 196 1340 "},"Í":{"ha":332,"x_min":0,"x_max":0,"o":"m 225 0 l 108 0 l 108 1047 l 225 1047 m 342 1340 l 129 1126 l 60 1165 l 225 1393 "},"Î":{"ha":332,"x_min":0,"x_max":0,"o":"m 225 0 l 108 0 l 108 1047 l 225 1047 m 165 1383 l 385 1199 l 304 1136 l 165 1254 l 28 1136 l -51 1199 "},"Ï":{"ha":332,"x_min":0,"x_max":0,"o":"m 225 0 l 108 0 l 108 1047 l 225 1047 m 29 1339 b 104 1264 71 1339 104 1306 b 29 1189 104 1222 71 1189 b -46 1264 -12 1189 -46 1222 b 29 1339 -46 1306 -12 1339 m 303 1339 b 378 1264 344 1339 378 1306 b 303 1189 378 1222 344 1189 b 228 1264 261 1189 228 1222 b 303 1339 228 1306 261 1339 "},"Ì":{"ha":332,"x_min":0,"x_max":0,"o":"m 225 0 l 108 0 l 108 1047 l 225 1047 m 107 1393 l 272 1165 l 203 1126 l -10 1340 "},"Ñ":{"ha":1158,"x_min":0,"x_max":0,"o":"m 113 1092 l 929 236 l 929 1047 l 1046 1047 l 1046 -47 l 229 807 l 229 0 l 113 0 m 336 1231 b 478 1340 368 1286 408 1340 b 590 1308 519 1340 557 1325 b 679 1276 625 1293 654 1276 b 757 1343 718 1276 740 1313 l 822 1290 b 675 1178 797 1229 743 1178 b 571 1210 642 1178 606 1193 b 474 1240 536 1225 503 1240 b 404 1176 435 1240 418 1207 "},"Ó":{"ha":1197,"x_min":0,"x_max":0,"o":"m 599 1065 b 1144 522 897 1065 1144 822 b 599 -18 1144 221 897 -18 b 53 522 300 -18 53 221 b 599 1065 53 822 300 1065 m 599 957 b 169 524 358 957 169 761 b 599 90 169 288 361 90 b 1028 524 836 90 1028 288 b 599 957 1028 761 839 957 m 796 1340 l 583 1126 l 514 1165 l 679 1393 "},"Ô":{"ha":1197,"x_min":0,"x_max":0,"o":"m 599 1065 b 1144 522 897 1065 1144 822 b 599 -18 1144 221 897 -18 b 53 522 300 -18 53 221 b 599 1065 53 822 300 1065 m 599 957 b 169 524 358 957 169 761 b 599 90 169 288 361 90 b 1028 524 836 90 1028 288 b 599 957 1028 761 839 957 m 597 1383 l 817 1199 l 736 1136 l 597 1254 l 460 1136 l 381 1199 "},"Ö":{"ha":1197,"x_min":0,"x_max":0,"o":"m 599 1065 b 1144 522 897 1065 1144 822 b 599 -18 1144 221 897 -18 b 53 522 300 -18 53 221 b 599 1065 53 822 300 1065 m 599 957 b 169 524 358 957 169 761 b 599 90 169 288 361 90 b 1028 524 836 90 1028 288 b 599 957 1028 761 839 957 m 463 1339 b 538 1264 504 1339 538 1306 b 463 1189 538 1222 504 1189 b 388 1264 421 1189 388 1222 b 463 1339 388 1306 421 1339 m 736 1339 b 811 1264 778 1339 811 1306 b 736 1189 811 1222 778 1189 b 661 1264 694 1189 661 1222 b 736 1339 661 1306 694 1339 "},"Ò":{"ha":1197,"x_min":0,"x_max":0,"o":"m 599 1065 b 1144 522 897 1065 1144 822 b 599 -18 1144 221 897 -18 b 53 522 300 -18 53 221 b 599 1065 53 822 300 1065 m 599 957 b 169 524 358 957 169 761 b 599 90 169 288 361 90 b 1028 524 836 90 1028 288 b 599 957 1028 761 839 957 m 519 1393 l 685 1165 l 615 1126 l 403 1340 "},"Õ":{"ha":1197,"x_min":0,"x_max":0,"o":"m 599 1065 b 1144 522 897 1065 1144 822 b 599 -18 1144 221 897 -18 b 53 522 300 -18 53 221 b 599 1065 53 822 300 1065 m 599 957 b 169 524 358 957 169 761 b 599 90 169 288 361 90 b 1028 524 836 90 1028 288 b 599 957 1028 761 839 957 m 356 1231 b 497 1340 388 1286 428 1340 b 610 1308 539 1340 576 1325 b 699 1276 644 1293 674 1276 b 776 1343 738 1276 760 1313 l 842 1290 b 694 1178 817 1229 763 1178 b 590 1210 661 1178 625 1193 b 493 1240 556 1225 522 1240 b 424 1176 454 1240 438 1207 "},"Š":{"ha":776,"x_min":0,"x_max":0,"o":"m 581 843 b 400 957 539 915 489 957 b 226 794 307 957 226 890 b 390 631 226 704 319 663 l 460 600 b 711 306 596 540 711 472 b 382 -18 711 122 564 -18 b 56 253 214 -18 89 90 l 169 285 b 379 90 185 178 267 90 b 594 294 492 90 594 176 b 401 503 594 417 499 458 l 338 531 b 110 799 215 586 110 649 b 403 1065 110 961 247 1065 b 674 903 519 1065 618 1006 m 404 1136 l 185 1321 l 265 1383 l 404 1265 l 542 1383 l 621 1321 "},"Ú":{"ha":951,"x_min":0,"x_max":0,"o":"m 219 424 b 265 190 219 346 217 257 b 476 90 311 126 400 90 b 682 183 551 90 633 125 b 733 424 738 250 733 342 l 733 1047 l 850 1047 l 850 392 b 758 101 850 278 842 188 b 476 -18 686 24 582 -18 b 206 89 378 -18 276 19 b 103 392 114 176 103 272 l 103 1047 l 219 1047 m 674 1340 l 461 1126 l 392 1165 l 557 1393 "},"Û":{"ha":951,"x_min":0,"x_max":0,"o":"m 219 424 b 265 190 219 346 217 257 b 476 90 311 126 400 90 b 682 183 551 90 633 125 b 733 424 738 250 733 342 l 733 1047 l 850 1047 l 850 392 b 758 101 850 278 842 188 b 476 -18 686 24 582 -18 b 206 89 378 -18 276 19 b 103 392 114 176 103 272 l 103 1047 l 219 1047 m 475 1383 l 694 1199 l 614 1136 l 475 1254 l 338 1136 l 258 1199 "},"Ü":{"ha":951,"x_min":0,"x_max":0,"o":"m 219 424 b 265 190 219 346 217 257 b 476 90 311 126 400 90 b 682 183 551 90 633 125 b 733 424 738 250 733 342 l 733 1047 l 850 1047 l 850 392 b 758 101 850 278 842 188 b 476 -18 686 24 582 -18 b 206 89 378 -18 276 19 b 103 392 114 176 103 272 l 103 1047 l 219 1047 m 339 1339 b 414 1264 381 1339 414 1306 b 339 1189 414 1222 381 1189 b 264 1264 297 1189 264 1222 b 339 1339 264 1306 297 1339 m 613 1339 b 688 1264 654 1339 688 1306 b 613 1189 688 1222 654 1189 b 538 1264 571 1189 538 1222 b 613 1339 538 1306 571 1339 "},"Ù":{"ha":951,"x_min":0,"x_max":0,"o":"m 219 424 b 265 190 219 346 217 257 b 476 90 311 126 400 90 b 682 183 551 90 633 125 b 733 424 738 250 733 342 l 733 1047 l 850 1047 l 850 392 b 758 101 850 278 842 188 b 476 -18 686 24 582 -18 b 206 89 378 -18 276 19 b 103 392 114 176 103 272 l 103 1047 l 219 1047 m 397 1393 l 563 1165 l 493 1126 l 281 1340 "},"Ý":{"ha":824,"x_min":0,"x_max":0,"o":"m 11 1047 l 146 1047 l 413 581 l 679 1047 l 814 1047 l 471 450 l 471 0 l 354 0 l 354 450 m 638 1340 l 425 1126 l 356 1165 l 521 1393 "},"Ÿ":{"ha":824,"x_min":0,"x_max":0,"o":"m 11 1047 l 146 1047 l 413 581 l 679 1047 l 814 1047 l 471 450 l 471 0 l 354 0 l 354 450 m 292 1339 b 367 1264 333 1339 367 1306 b 292 1189 367 1222 333 1189 b 217 1264 250 1189 217 1222 b 292 1339 217 1306 250 1339 m 565 1339 b 640 1264 607 1339 640 1306 b 565 1189 640 1222 607 1189 b 490 1264 524 1189 490 1222 b 565 1339 490 1306 524 1339 "},"Ž":{"ha":814,"x_min":0,"x_max":0,"o":"m 769 108 l 769 0 l 19 0 l 590 939 l 92 939 l 92 1047 l 785 1047 l 213 108 m 425 1136 l 206 1321 l 286 1383 l 425 1265 l 563 1383 l 642 1321 "},"á":{"ha":801,"x_min":0,"x_max":0,"o":"m 376 568 b 164 333 247 568 164 456 b 378 85 164 206 239 85 b 596 332 521 85 596 200 b 376 568 596 463 514 568 m 701 0 l 590 0 l 590 90 l 588 90 b 363 -18 531 18 454 -18 b 50 325 171 -18 50 144 b 364 671 50 511 168 671 b 588 560 453 671 533 629 l 590 560 l 590 653 l 701 653 m 599 981 l 386 767 l 317 806 l 482 1033 "},"â":{"ha":801,"x_min":0,"x_max":0,"o":"m 376 568 b 164 333 247 568 164 456 b 378 85 164 206 239 85 b 596 332 521 85 596 200 b 376 568 596 463 514 568 m 701 0 l 590 0 l 590 90 l 588 90 b 363 -18 531 18 454 -18 b 50 325 171 -18 50 144 b 364 671 50 511 168 671 b 588 560 453 671 533 629 l 590 560 l 590 653 l 701 653 m 400 1024 l 619 839 l 539 776 l 400 894 l 263 776 l 183 839 "},"ä":{"ha":801,"x_min":0,"x_max":0,"o":"m 376 568 b 164 333 247 568 164 456 b 378 85 164 206 239 85 b 596 332 521 85 596 200 b 376 568 596 463 514 568 m 701 0 l 590 0 l 590 90 l 588 90 b 363 -18 531 18 454 -18 b 50 325 171 -18 50 144 b 364 671 50 511 168 671 b 588 560 453 671 533 629 l 590 560 l 590 653 l 701 653 m 264 979 b 339 904 306 979 339 946 b 264 829 339 863 306 829 b 189 904 222 829 189 863 b 264 979 189 946 222 979 m 538 979 b 613 904 579 979 613 946 b 538 829 613 863 579 829 b 463 904 496 829 463 863 b 538 979 463 946 496 979 "},"à":{"ha":801,"x_min":0,"x_max":0,"o":"m 376 568 b 164 333 247 568 164 456 b 378 85 164 206 239 85 b 596 332 521 85 596 200 b 376 568 596 463 514 568 m 701 0 l 590 0 l 590 90 l 588 90 b 363 -18 531 18 454 -18 b 50 325 171 -18 50 144 b 364 671 50 511 168 671 b 588 560 453 671 533 629 l 590 560 l 590 653 l 701 653 m 322 1033 l 488 806 l 418 767 l 206 981 "},"å":{"ha":801,"x_min":0,"x_max":0,"o":"m 376 568 b 164 333 247 568 164 456 b 378 85 164 206 239 85 b 596 332 521 85 596 200 b 376 568 596 463 514 568 m 701 0 l 590 0 l 590 90 l 588 90 b 363 -18 531 18 454 -18 b 50 325 171 -18 50 144 b 364 671 50 511 168 671 b 588 560 453 671 533 629 l 590 560 l 590 653 l 701 653 m 403 1038 b 538 903 476 1038 538 976 b 403 767 538 828 478 767 b 267 903 328 767 267 828 b 403 1038 267 976 328 1038 m 403 968 b 336 903 367 968 336 939 b 403 836 336 867 367 836 b 468 903 439 836 468 867 b 403 968 468 939 439 968 "},"ã":{"ha":801,"x_min":0,"x_max":0,"o":"m 376 568 b 164 333 247 568 164 456 b 378 85 164 206 239 85 b 596 332 521 85 596 200 b 376 568 596 463 514 568 m 701 0 l 590 0 l 590 90 l 588 90 b 363 -18 531 18 454 -18 b 50 325 171 -18 50 144 b 364 671 50 511 168 671 b 588 560 453 671 533 629 l 590 560 l 590 653 l 701 653 m 158 871 b 300 981 190 926 231 981 b 413 949 342 981 379 965 b 501 917 447 933 476 917 b 579 983 540 917 563 953 l 644 931 b 497 818 619 869 565 818 b 393 850 464 818 428 833 b 296 881 358 865 325 881 b 226 817 257 881 240 847 "},"ç":{"ha":661,"x_min":0,"x_max":0,"o":"m 590 458 l 588 458 b 385 568 536 524 472 568 b 154 326 250 568 154 457 b 379 85 154 197 243 85 b 592 197 472 85 538 126 l 594 197 l 594 49 b 388 -18 531 6 465 -18 b 40 326 190 -18 40 129 b 389 671 40 521 197 671 b 590 606 460 671 532 647 m 292 -276 l 214 -237 l 347 -32 l 450 -74 "},"é":{"ha":721,"x_min":0,"x_max":0,"o":"m 161 303 b 375 85 163 182 249 85 b 574 219 469 85 531 142 l 668 165 b 367 -18 606 49 500 -18 b 47 318 172 -18 47 131 b 364 671 47 511 160 671 b 674 303 574 671 685 497 m 557 397 b 365 568 542 492 463 568 b 167 397 269 568 181 492 m 558 981 l 346 767 l 276 806 l 442 1033 "},"ê":{"ha":721,"x_min":0,"x_max":0,"o":"m 161 303 b 375 85 163 182 249 85 b 574 219 469 85 531 142 l 668 165 b 367 -18 606 49 500 -18 b 47 318 172 -18 47 131 b 364 671 47 511 160 671 b 674 303 574 671 685 497 m 557 397 b 365 568 542 492 463 568 b 167 397 269 568 181 492 m 360 1024 l 579 839 l 499 776 l 360 894 l 222 776 l 143 839 "},"ë":{"ha":721,"x_min":0,"x_max":0,"o":"m 161 303 b 375 85 163 182 249 85 b 574 219 469 85 531 142 l 668 165 b 367 -18 606 49 500 -18 b 47 318 172 -18 47 131 b 364 671 47 511 160 671 b 674 303 574 671 685 497 m 557 397 b 365 568 542 492 463 568 b 167 397 269 568 181 492 m 224 979 b 299 904 265 979 299 946 b 224 829 299 863 265 829 b 149 904 182 829 149 863 b 224 979 149 946 182 979 m 497 979 b 572 904 539 979 572 946 b 497 829 572 863 539 829 b 422 904 456 829 422 863 b 497 979 422 946 456 979 "},"è":{"ha":721,"x_min":0,"x_max":0,"o":"m 161 303 b 375 85 163 182 249 85 b 574 219 469 85 531 142 l 668 165 b 367 -18 606 49 500 -18 b 47 318 172 -18 47 131 b 364 671 47 511 160 671 b 674 303 574 671 685 497 m 557 397 b 365 568 542 492 463 568 b 167 397 269 568 181 492 m 282 1033 l 447 806 l 378 767 l 165 981 "},"í":{"ha":364,"x_min":0,"x_max":0,"o":"m 238 0 l 126 0 l 126 653 l 238 653 m 358 981 l 146 767 l 76 806 l 242 1033 "},"î":{"ha":364,"x_min":0,"x_max":0,"o":"m 238 0 l 126 0 l 126 653 l 238 653 m 181 1024 l 400 839 l 319 776 l 181 894 l 43 776 l -36 839 "},"ï":{"ha":364,"x_min":0,"x_max":0,"o":"m 238 0 l 126 0 l 126 653 l 238 653 m 46 979 b 121 904 88 979 121 946 b 46 829 121 863 88 829 b -29 904 4 829 -29 863 b 46 979 -29 946 4 979 m 319 979 b 394 904 361 979 394 946 b 319 829 394 863 361 829 b 244 904 278 829 244 863 b 319 979 244 946 278 979 "},"ì":{"ha":364,"x_min":0,"x_max":0,"o":"m 238 0 l 126 0 l 126 653 l 238 653 m 124 1033 l 289 806 l 219 767 l 7 981 "},"ñ":{"ha":733,"x_min":0,"x_max":0,"o":"m 217 574 l 219 574 b 406 671 265 636 325 671 b 628 388 586 671 628 540 l 628 0 l 517 0 l 517 368 b 379 568 517 474 508 568 b 217 310 226 568 217 426 l 217 0 l 106 0 l 106 653 l 217 653 m 124 871 b 265 981 156 926 196 981 b 378 949 307 981 344 965 b 467 917 413 933 442 917 b 544 983 506 917 528 953 l 610 931 b 463 818 585 869 531 818 b 358 850 429 818 393 833 b 261 881 324 865 290 881 b 192 817 222 881 206 847 "},"ó":{"ha":781,"x_min":0,"x_max":0,"o":"m 390 -18 b 47 325 200 -18 47 133 b 390 671 47 517 199 671 b 733 325 582 671 733 517 b 390 -18 733 133 581 -18 m 390 568 b 158 326 253 568 158 458 b 390 85 158 193 253 85 b 622 326 528 85 622 193 b 390 568 622 458 528 568 m 588 981 l 375 767 l 306 806 l 471 1033 "},"ô":{"ha":781,"x_min":0,"x_max":0,"o":"m 390 -18 b 47 325 200 -18 47 133 b 390 671 47 517 199 671 b 733 325 582 671 733 517 b 390 -18 733 133 581 -18 m 390 568 b 158 326 253 568 158 458 b 390 85 158 193 253 85 b 622 326 528 85 622 193 b 390 568 622 458 528 568 m 389 1024 l 608 839 l 528 776 l 389 894 l 251 776 l 172 839 "},"ö":{"ha":781,"x_min":0,"x_max":0,"o":"m 390 -18 b 47 325 200 -18 47 133 b 390 671 47 517 199 671 b 733 325 582 671 733 517 b 390 -18 733 133 581 -18 m 390 568 b 158 326 253 568 158 458 b 390 85 158 193 253 85 b 622 326 528 85 622 193 b 390 568 622 458 528 568 m 254 979 b 329 904 296 979 329 946 b 254 829 329 863 296 829 b 179 904 213 829 179 863 b 254 979 179 946 213 979 m 528 979 b 603 904 569 979 603 946 b 528 829 603 863 569 829 b 453 904 486 829 453 863 b 528 979 453 946 486 979 "},"ò":{"ha":781,"x_min":0,"x_max":0,"o":"m 390 -18 b 47 325 200 -18 47 133 b 390 671 47 517 199 671 b 733 325 582 671 733 517 b 390 -18 733 133 581 -18 m 390 568 b 158 326 253 568 158 458 b 390 85 158 193 253 85 b 622 326 528 85 622 193 b 390 568 622 458 528 568 m 311 1033 l 476 806 l 407 767 l 194 981 "},"õ":{"ha":781,"x_min":0,"x_max":0,"o":"m 390 -18 b 47 325 200 -18 47 133 b 390 671 47 517 199 671 b 733 325 582 671 733 517 b 390 -18 733 133 581 -18 m 390 568 b 158 326 253 568 158 458 b 390 85 158 193 253 85 b 622 326 528 85 622 193 b 390 568 622 458 528 568 m 147 871 b 289 981 179 926 219 981 b 401 949 331 981 368 965 b 490 917 436 933 465 917 b 568 983 529 917 551 953 l 633 931 b 486 818 608 869 554 818 b 382 850 453 818 417 833 b 285 881 347 865 314 881 b 215 817 246 881 229 847 "},"š":{"ha":554,"x_min":0,"x_max":0,"o":"m 369 501 b 281 568 354 536 321 568 b 200 496 242 568 200 538 b 351 382 200 436 275 414 b 503 194 428 350 503 304 b 282 -18 503 71 403 -18 b 51 147 172 -18 86 44 l 150 189 b 283 85 178 128 210 85 b 389 185 343 85 389 125 b 94 486 389 331 94 281 b 289 671 94 596 183 671 b 463 550 364 671 433 618 m 279 776 l 60 961 l 140 1024 l 279 906 l 417 1024 l 496 961 "},"ú":{"ha":711,"x_min":0,"x_max":0,"o":"m 208 289 b 356 85 208 179 221 85 b 503 289 490 85 503 179 l 503 653 l 614 653 l 614 276 b 356 -18 614 103 549 -18 b 97 276 163 -18 97 103 l 97 653 l 208 653 m 553 981 l 340 767 l 271 806 l 436 1033 "},"û":{"ha":711,"x_min":0,"x_max":0,"o":"m 208 289 b 356 85 208 179 221 85 b 503 289 490 85 503 179 l 503 653 l 614 653 l 614 276 b 356 -18 614 103 549 -18 b 97 276 163 -18 97 103 l 97 653 l 208 653 m 354 1024 l 574 839 l 493 776 l 354 894 l 217 776 l 138 839 "},"ü":{"ha":711,"x_min":0,"x_max":0,"o":"m 208 289 b 356 85 208 179 221 85 b 503 289 490 85 503 179 l 503 653 l 614 653 l 614 276 b 356 -18 614 103 549 -18 b 97 276 163 -18 97 103 l 97 653 l 208 653 m 219 979 b 294 904 261 979 294 946 b 219 829 294 863 261 829 b 144 904 178 829 144 863 b 219 979 144 946 178 979 m 493 979 b 568 904 535 979 568 946 b 493 829 568 863 535 829 b 418 904 451 829 418 863 b 493 979 418 946 451 979 "},"ù":{"ha":711,"x_min":0,"x_max":0,"o":"m 208 289 b 356 85 208 179 221 85 b 503 289 490 85 503 179 l 503 653 l 614 653 l 614 276 b 356 -18 614 103 549 -18 b 97 276 163 -18 97 103 l 97 653 l 208 653 m 276 1033 l 442 806 l 372 767 l 160 981 "},"ý":{"ha":692,"x_min":0,"x_max":0,"o":"m -3 653 l 126 653 l 357 185 l 568 653 l 694 653 l 213 -367 l 86 -367 l 297 61 m 571 981 l 358 767 l 289 806 l 454 1033 "},"ÿ":{"ha":692,"x_min":0,"x_max":0,"o":"m -3 653 l 126 653 l 357 185 l 568 653 l 694 653 l 213 -367 l 86 -367 l 297 61 m 217 979 b 292 904 258 979 292 946 b 217 829 292 863 258 829 b 142 904 175 829 142 863 b 217 979 142 946 175 979 m 490 979 b 565 904 532 979 565 946 b 490 829 565 863 532 829 b 415 904 449 829 415 863 b 490 979 415 946 449 979 "},"ž":{"ha":721,"x_min":0,"x_max":0,"o":"m 689 103 l 689 0 l 14 0 l 485 550 l 101 550 l 101 653 l 708 653 l 239 103 m 383 776 l 164 961 l 244 1024 l 383 906 l 521 1024 l 600 961 "},"Ω":{"ha":1111,"x_min":0,"x_max":0,"o":"m 308 93 b 99 560 199 186 99 347 b 560 1060 99 854 299 1060 b 1011 565 835 1060 1011 825 b 799 93 1011 346 904 178 l 799 89 l 1032 89 l 1032 0 l 665 0 l 665 65 b 901 546 785 140 901 306 b 558 971 901 743 785 971 b 208 543 344 971 208 779 b 444 65 208 317 325 139 l 444 0 l 76 0 l 76 89 l 308 89 "},"μ":{"ha":711,"x_min":0,"x_max":0,"o":"m 208 289 b 356 85 208 179 221 85 b 503 289 490 85 503 179 l 503 653 l 614 653 l 614 276 b 356 -18 614 103 549 -18 b 208 47 308 -18 268 -10 l 208 -367 l 97 -367 l 97 653 l 208 653 "},"π":{"ha":872,"x_min":0,"x_max":0,"o":"m 706 683 l 706 222 b 729 0 706 96 717 40 l 624 0 b 597 213 608 24 597 86 l 597 683 l 314 683 b 200 0 304 488 257 139 l 93 0 b 206 683 151 160 197 481 b 32 664 107 683 64 676 l 14 736 b 232 776 53 760 115 776 l 843 776 l 832 683 "},"€":{"ha":856,"x_min":0,"x_max":0,"o":"m 788 878 b 553 960 742 922 663 960 b 267 671 375 960 286 833 l 721 671 l 689 582 l 254 582 b 253 526 254 567 253 544 b 254 468 253 504 254 483 l 647 468 l 615 379 l 267 379 b 554 85 292 192 390 85 b 788 168 663 85 736 122 l 788 51 b 539 -17 750 18 663 -17 b 151 379 326 -17 188 108 l 40 379 l 72 468 l 143 468 b 140 526 142 482 140 507 b 142 582 140 546 142 567 l 40 582 l 72 671 l 150 671 b 540 1064 182 896 296 1064 b 788 993 657 1064 746 1026 "},"ℓ":{"ha":740,"x_min":0,"x_max":0,"o":"m 704 178 b 419 -11 638 53 539 -11 b 168 267 246 -11 175 119 l 168 285 b 79 214 140 264 110 238 l 46 278 b 167 381 89 314 131 346 l 167 792 b 399 1151 167 1065 288 1151 b 588 908 528 1151 588 1042 b 269 357 588 719 461 539 l 269 310 b 440 75 271 143 353 75 b 651 224 539 75 614 156 m 269 463 b 511 906 406 607 511 756 b 399 1069 511 1003 482 1069 b 269 803 342 1069 269 1004 "},"℮":{"ha":1306,"x_min":0,"x_max":0,"o":"m 279 508 b 272 501 275 508 272 507 l 272 207 b 285 174 272 194 276 183 b 653 14 379 76 508 14 b 1040 193 808 14 946 83 l 1128 193 b 651 -17 1019 67 846 -17 b 50 522 319 -17 50 225 b 651 1065 50 822 319 1065 b 1254 522 985 1065 1254 822 l 1254 508 m 1033 843 b 1018 879 1033 857 1028 869 b 653 1032 924 972 796 1032 b 286 874 511 1032 381 969 b 272 838 276 864 272 851 l 272 547 b 279 538 272 543 275 538 l 1026 538 b 1033 547 1032 538 1033 543 "},"∂":{"ha":835,"x_min":0,"x_max":0,"o":"m 117 1086 b 371 1169 167 1125 247 1169 b 757 604 569 1169 757 986 b 358 -12 757 261 622 -12 b 65 333 158 -12 65 165 b 390 714 65 565 218 714 b 647 564 535 714 624 610 l 649 564 b 651 632 651 582 651 614 b 361 1081 651 903 517 1081 b 156 1008 265 1081 197 1043 m 369 78 b 635 457 518 78 614 260 b 407 626 613 524 529 626 b 172 335 279 626 172 496 b 368 78 172 188 250 78 "},"∏":{"ha":1071,"x_min":0,"x_max":0,"o":"m 860 946 l 860 -144 l 754 -144 l 754 946 l 315 946 l 315 -144 l 210 -144 l 210 946 l 39 946 l 39 1043 l 1029 1043 l 1029 946 "},"∑":{"ha":850,"x_min":0,"x_max":0,"o":"m 35 -144 l 35 -72 l 450 447 l 53 968 l 53 1043 l 790 1043 l 790 950 l 204 950 l 204 944 l 575 463 l 175 -37 l 175 -43 l 814 -43 l 814 -144 "},"∙":{"ha":428,"x_min":0,"x_max":0,"o":"m 214 432 b 292 356 257 432 292 397 b 214 276 292 313 257 276 b 136 356 171 276 136 313 b 214 432 136 397 171 432 "},"√":{"ha":872,"x_min":0,"x_max":0,"o":"m 532 -225 l 435 -225 l 189 471 l 75 428 l 51 494 l 256 574 l 456 7 b 482 -99 465 -28 475 -69 l 483 -99 b 504 7 488 -71 496 -29 l 790 1239 l 872 1239 "},"∞":{"ha":1181,"x_min":0,"x_max":0,"o":"m 1103 432 b 872 193 1103 286 992 193 b 592 375 775 193 699 254 b 304 193 511 283 428 193 b 78 428 182 193 78 294 b 315 667 78 565 179 667 b 597 483 429 667 517 578 b 883 667 678 572 756 667 b 1103 435 1015 665 1103 571 m 315 261 b 554 425 414 261 490 358 b 304 600 485 507 415 600 b 151 425 207 600 151 518 b 314 261 151 335 217 261 m 874 600 b 633 432 771 600 688 486 b 878 261 736 321 796 261 b 1031 428 975 261 1031 347 b 875 600 1031 536 964 600 "},"∫":{"ha":539,"x_min":0,"x_max":0,"o":"m 497 1178 b 440 1194 483 1186 460 1194 b 363 1158 415 1194 383 1185 b 310 890 324 1114 310 1033 b 331 138 310 658 331 379 b 265 -164 331 -25 299 -112 b 117 -239 232 -215 175 -239 b 18 -214 78 -239 36 -225 l 38 -136 b 108 -156 51 -143 78 -156 b 179 -121 133 -156 161 -143 b 233 139 210 -82 233 -15 b 211 901 233 382 211 667 b 293 1217 211 1064 233 1157 b 432 1274 331 1257 382 1274 b 515 1253 464 1274 500 1263 "},"≈":{"ha":864,"x_min":0,"x_max":0,"o":"m 790 606 b 596 463 750 526 689 463 b 415 528 532 463 489 486 b 271 579 368 554 322 579 b 118 465 199 579 157 525 l 71 504 b 281 647 118 593 193 647 b 453 585 356 647 410 607 b 599 532 507 556 543 532 b 746 644 663 532 703 571 m 790 347 b 594 206 750 269 689 206 b 415 271 532 206 489 229 b 271 322 367 297 322 322 b 118 207 199 322 156 267 l 71 247 b 281 390 118 336 193 390 b 453 328 356 390 410 350 b 600 275 504 301 542 275 b 746 388 663 275 701 313 "},"≠":{"ha":864,"x_min":0,"x_max":0,"o":"m 542 607 l 785 607 l 785 536 l 513 536 l 408 313 l 785 313 l 785 242 l 379 242 l 296 61 l 239 88 l 311 242 l 78 242 l 78 313 l 340 313 l 444 536 l 78 536 l 78 607 l 472 607 l 556 785 l 611 758 "},"≤":{"ha":864,"x_min":0,"x_max":0,"o":"m 88 482 l 88 557 l 781 899 l 781 814 l 164 522 l 164 519 l 781 225 l 781 140 m 78 6 l 78 78 l 785 78 l 785 6 "},"≥":{"ha":864,"x_min":0,"x_max":0,"o":"m 782 557 l 782 482 l 89 140 l 89 225 l 704 518 l 704 521 l 89 814 l 89 899 m 79 6 l 79 78 l 783 78 l 783 6 "},"◊":{"ha":872,"x_min":0,"x_max":0,"o":"m 478 -69 l 390 -69 l 83 521 l 393 1113 l 481 1113 l 788 521 m 465 946 b 436 1022 454 969 443 1001 l 433 1022 b 403 946 426 999 417 972 l 182 524 l 407 94 b 433 19 419 64 429 38 l 439 19 b 467 93 444 38 457 74 l 689 518 "}," ":{"ha":428,"x_min":0,"x_max":0,"o":""},"­":{"ha":289,"x_min":0,"x_max":0,"o":"m 288 386 l 288 283 l 3 283 l 3 386 "},"ˉ":{"ha":693,"x_min":0,"x_max":0,"o":"m 585 947 l 585 853 l 110 853 l 110 947 "},"Ω":{"ha":1111,"x_min":0,"x_max":0,"o":"m 308 93 b 99 560 199 186 99 347 b 560 1060 99 854 299 1060 b 1011 565 835 1060 1011 825 b 799 93 1011 346 904 178 l 799 89 l 1032 89 l 1032 0 l 665 0 l 665 65 b 901 546 785 140 901 306 b 558 971 901 743 785 971 b 208 543 344 971 208 779 b 444 65 208 317 325 139 l 444 0 l 76 0 l 76 89 l 308 89 "},"∕":{"ha":224,"x_min":0,"x_max":0,"o":"m 447 1032 l -162 -18 l -224 15 l 386 1065 "},"∆":{"ha":993,"x_min":0,"x_max":0,"o":"m 47 75 l 436 1072 l 563 1072 l 946 76 l 946 0 l 47 0 m 829 88 l 601 671 b 497 950 574 750 517 882 l 492 950 b 399 694 478 896 426 775 l 158 88 "},"‐":{"ha":289,"x_min":0,"x_max":0,"o":"m 288 386 l 288 283 l 3 283 l 3 386 "}}}
